<svg id="Layer_1" data-name="Layer 1" xmlns="http://www.w3.org/2000/svg" viewBox="0 0 547.41 519.41"><path d="M431.71,165.49c3.84,1.88,8.14,1.65,12.19,2.56,40,9.06,68.93,33,90.14,67.07,16.58,26.66,25.33,56.07,29.14,87.07.5,4,.82,8.09,1.19,12.15a16.75,16.75,0,0,1-.22,2.16c-5.89-1.83-11.58-3.62-17.29-5.36-5.5-1.69-12.67-1.8-16.05-5.43-3.17-3.4-2.12-10.56-3.28-16-6.17-29-17.45-55.64-36.93-78.29-19.28-22.41-43.47-35-73.51-32-38.16,3.8-69.67,19.59-90.91,53.24-18.28,29-27.87,60.34-30.26,94.34-2.87,41,2.82,80.49,18.54,118.5,4,9.73,8.82,19.06,13.75,28.36,2.28,4.3,4.69,6.17,10.06,6.08,20.44-.36,36.48,14.54,39.11,35.42,2.27,18-10.71,36.64-29.28,41.17-15.78,3.84-29.46-.61-39.69-13.17-10-12.27-12.21-26.22-5.48-40.94a5.23,5.23,0,0,0-.33-5.53c-19.06-33.82-32.91-69.59-38.47-108.13-9-62.54-.35-122,35-175.46,22.7-34.29,54.65-56.58,95.4-65.3,3.89-.83,8.05-.42,11.67-2.5Z" transform="translate(-151.49 -165.49)" style="fill:#764bbc"/><path d="M151.49,534.32c2.27-5.49,2.23-11.46,3.53-17.17,8.55-37.62,28.88-68,57.22-93.48,5.55-5,11.57-9.43,17.32-14.19,2.12-1.75,3.05-2,3.81,1.29,2.26,9.73,4.81,19.4,7.51,29,.79,2.83-.62,3.93-2.43,5.38-19.36,15.48-34.89,34.06-45.77,56.46-21.41,44.12-9.92,89.61,19.16,118.92,16.32,16.45,37,24,59.65,26.87,47.2,5.93,89.84-6.9,130-31,39.61-23.82,72.66-53.88,94.66-95.12,1.74-3.28,1.88-5.34-.6-8.44-10.34-13-10.68-32.09-1.25-45.63a38.95,38.95,0,0,1,71,21.89c.06,18.81-11.81,34-30.16,38.38-3.15.75-5.18,1.93-6.78,5C488,611.08,424,658.41,337.93,677c-34.14,7.38-67.7,7.26-100.8-4.19-31.62-10.94-57.13-29.51-72-60.53A146,146,0,0,1,152.6,569c-.15-1.09.32-2.45-1.11-3.11Z" transform="translate(-151.49 -165.49)" style="fill:#774bbc"/><path d="M462,663.27c10.26-7.62,20-15.24,29.32-23.37,2.25-2,4.11-.47,6.07.29,23.53,9.16,47.8,13.61,73.15,12.43,47.52-2.22,88.67-38.94,95.22-86,3-21.65-2.41-42.05-11.33-61.72-16.55-36.48-43.19-63.71-76.87-84.62q-69.12-42.91-150.44-41c-3.2.08-4.31,1.57-5.65,3.91a38.8,38.8,0,1,1-43.06-57c15.3-4,32,2,40.74,15.2,2.42,3.65,4.92,4.6,9,4.55,43.41-.56,85.54,6.29,125.56,23.52,53.3,23,96.49,58.07,124.83,109.26,19.76,35.69,25.91,74,15.1,114.06-7,25.75-23,45.17-44,60.62-33.23,24.44-70.77,34-111.74,30.94-25.17-1.87-48.92-9-71.91-19C464.75,664.83,463.6,664.13,462,663.27Z" transform="translate(-151.49 -165.49)" style="fill:#774bbc"/></svg>