<svg id="Layer_1" data-name="Layer 1" xmlns="http://www.w3.org/2000/svg" viewBox="0 0 591.48 353.33">
  <defs>
    <style>.cls-1{fill:#06b6d4;}</style>
  </defs>
  <path class="cls-1" d="M425.2,248.53q-118.27,0-147.89,117.79,44.4-58.89,103.54-44.2C403.33,327.74,419.4,344,437.22,362c29,29.28,62.56,63.21,135.86,63.21q118.27,0,147.86-117.79-44.36,58.89-103.51,44.17C595,346,578.85,329.71,561.06,311.74,532.07,282.43,498.5,248.53,425.2,248.53ZM277.31,425.2Q159,425.2,129.46,543,173.8,484.09,233,498.82c22.51,5.58,38.58,21.87,56.37,39.83,29,29.32,62.56,63.21,135.86,63.21q118.32,0,147.88-117.79-44.39,58.89-103.5,44.2c-22.52-5.62-38.59-21.86-56.41-39.87C384.18,459.13,350.61,425.2,277.31,425.2Z" transform="translate(-129.46 -248.53)"/>
</svg>