<svg id="Layer_1" data-name="Layer 1" xmlns="http://www.w3.org/2000/svg" viewBox="0 0 832.2 832.05"><path d="M825.55,388.15,462.17,24.85a53.62,53.62,0,0,0-75.77,0L311,100.3,406.66,196a63.65,63.65,0,0,1,80.63,81.11l92.29,92.29a63.73,63.73,0,1,1-38.21,36l-86.06-86.06V545.67a63.77,63.77,0,1,1-73.38,12.05,62.82,62.82,0,0,1,20.9-13.88V315.33a63.67,63.67,0,0,1-34.62-83.59l-94.35-94.35L24.77,386.47a53.64,53.64,0,0,0,0,75.77L388.15,825.55a53.64,53.64,0,0,0,75.77,0L825.63,463.92a53.55,53.55,0,0,0-.08-75.77" transform="translate(-9.1 -9.17)" style="fill:#f05133"/></svg>