<svg id="Layer_1" data-name="Layer 1" xmlns="http://www.w3.org/2000/svg" viewBox="0 0 847.34 847.2"><path d="M848.87,774.18a2.37,2.37,0,0,1-1.11.24c-.07-1.74-.21-3.49-.21-5.23q0-340.38,0-680.77c0-4.15.13-8.3.2-12.45a2.26,2.26,0,0,1,1.11.25Z" transform="translate(-1.53 -1.6)" style="fill:#e099be"/><path d="M847.76,76c-.07,4.15-.2,8.3-.2,12.45q0,340.38,0,680.77c0,1.74.14,3.49.21,5.23-2.1,35.68-34.78,69.74-70.24,73.31a219.92,219.92,0,0,1-22.22,1.07q-334.15-.06-668.3-.13c-35,0-61.07-16-77.15-47.32a78.41,78.41,0,0,1-8.26-36.1Q1.5,425.2,1.6,85.14A83.07,83.07,0,0,1,85,1.69q340.05-.19,680.1,0C808.19,1.7,845.38,35.47,847.76,76ZM403.51,582.41c-1.46-9.95-.45-18.07,1.25-26.14,4.74-22.44,10.88-44.53,16.85-66.67,2.63-9.72-.63-15-10.35-17.32-2.9-.69-5.67-.82-8.3.51-3.7,1.86-4.49.46-4.32-3.16a137.73,137.73,0,0,0,.08-16.38c-1.2-16.73-11.05-25.21-27.63-24.29a43,43,0,0,0-16.28,4.68c-14.57,7-26.85,17-37.74,28.9-4.21,4.61-7.11,10.35-13.08,13.53q-32.69,17.4-65,35.48c-3.94,2.2-6.15,1.48-9-1.49-9.17-9.71-19.51-18.11-30-26.39-19.53-15.43-40-29.73-57.37-47.77-30.15-31.33-33.93-67-11.1-104a166.67,166.67,0,0,1,40.15-44.61C234.5,238.82,302.81,202,383,192.4c25-3,50.18-2.38,74.41,6.57,27.37,10.1,38,29.39,31.24,57.73C482,284.49,465,305.62,444,323.8c-32.75,28.39-71.21,44.71-113.77,51.34-33.12,5.16-65.19,4.65-90.77-22a3.9,3.9,0,0,0-4.78-1c-2.07,1-2.52,3-2.18,5a29.63,29.63,0,0,0,5.25,12.6c11.14,15.41,26.54,24.51,44.62,29.13,19.71,5,39.77,4.94,59.89,2.85,36.05-3.75,70.6-12.75,101.8-31.57,39.49-23.83,68.67-56.64,82.17-101.55,7.4-24.64,7.61-49.36-5.85-72.33-12.88-22-33.74-33.78-57.21-41.18-42.67-13.44-85.8-11.81-128.79-1.86C288,164,245.13,183.62,203.72,206.55c-37.7,20.87-72.21,46-100.85,78.58C85.69,304.66,71.61,326.05,64,351.27c-5.16,17-4.43,33.51,2.78,49.85,6.89,15.61,16.71,29.08,28.4,41.38,17.42,18.32,37.46,33.43,58,47.95,16.06,11.34,32.64,21.95,48.07,34.18,5.72,4.53,5.59,4.54-.49,7.85-11.13,6.06-22.39,11.91-33.24,18.44-23.65,14.25-46.64,29.52-64.16,51.34-16,20-22.86,42.69-16.47,68,3.53,14,10.62,26.19,25.42,31.09,13.29,4.39,27.29,4.86,40.91,2.7,80.45-12.72,123.5-95.68,96.27-166.91-1.11-2.91-.7-4.16,1.93-5.63,10.86-6.08,21.61-12.39,32.41-18.57,1.27-.73,2.54-1.8,4.85-.75a306.84,306.84,0,0,0-7.26,34.18c-3.77,26.64.32,51.73,13.73,75.19,5.95,10.41,14.33,15.92,26.79,15.12,11.23-.72,17.75-7.52,23.05-16.19,7.32-12,12.92-24.79,18.58-37.59,1.34-3,2.09-6.45,5.15-9.43,0,3.91.06,6.93,0,10-.21,9.85-.23,19.67,3.2,29.13,5.32,14.7,17.6,18.43,30,8.89C409.14,616,414.58,608.81,419,601c23.78-41.86,45-84.94,62.66-129.76.57-1.42.55-3.63,3.33-3.57,3.48,15.74,7.28,31.39,14.65,46,7.95,15.7,7.95,15.91-3.3,30-12.69,15.86-25.76,31.41-38.52,47.22-4.25,5.26-7.59,11.31-4.24,18.09,3.53,7.16,10.88,7.1,17.67,7.54a14.41,14.41,0,0,0,2,0,104.23,104.23,0,0,0,46.5-14.47c16.8-9.84,27.66-23.87,29.43-43.87,1.09-12.3-2.19-23.85-6.62-35.08-1.33-3.37-1.51-5.83.68-9a500.71,500.71,0,0,0,30.65-50.38c3.49-6.53,7.05-13,11.53-21.32,3.7,21.08,9.24,39.38,18.75,56.29,1.65,2.93-.25,4.45-2.13,6a133.29,133.29,0,0,0-17.93,18.17c-11,13.34-19.64,27.8-22.1,45.34-2.32,16.55,8.8,26.88,24.91,22.76a94.22,94.22,0,0,0,27.19-11.17c30.85-19.48,43-40.08,31.09-73.68-1.63-4.59.37-5.64,3.94-6.83,31.59-10.49,63.21-9.73,94.67.17a74.4,74.4,0,0,1,34.28,22.16c20,22.91,16.9,48.75-8,65.71-2.32,1.58-6.6,2.7-4.49,6.63,1.85,3.45,5.4,1.51,8.28.73a19.56,19.56,0,0,0,2.46-.9,50.49,50.49,0,0,0,29.94-55c-4.76-27-20.54-46.13-44.33-58.29-36.72-18.77-74.63-17.06-112.58-3.82-14.49,5.05-14.15,5.4-21.33-8.42-10.48-20.18-12.54-41.07-6.19-62.84,1.34-4.61,2.9-9.16,4.35-13.74,2.26-7.19.31-10.59-7.15-12.2-10.53-2.25-20.85-.6-31.08,1.95-4.17,1-6.67,3.7-7.76,8-2,7.82-3.6,15.83-6.54,23.3-10.85,27.57-26.39,52.7-41.25,78.18-1.54,2.64-3.06,3.87-4.86.21-3.48-7.06-6.71-14.14-8.16-22-3.48-18.84-1-36.91,5.89-54.62,2.92-7.46,1-11-6.87-12.71-10.71-2.39-21.27-.89-31.67,2.05-3.85,1.09-6,3.48-7.07,7.66-2,8-3.87,16.13-7.22,23.79-19.24,44.05-38.22,88.21-59.17,131.49C410.85,571.64,408.63,576.89,403.51,582.41Z" transform="translate(-1.53 -1.6)" style="fill:#d46fa4"/><path d="M403.51,582.41c5.12-5.52,7.34-10.77,9.77-15.79,21-43.28,39.93-87.44,59.17-131.49,3.35-7.66,5.22-15.76,7.22-23.79,1-4.18,3.22-6.57,7.07-7.66,10.4-2.94,21-4.44,31.67-2.05,7.82,1.75,9.79,5.25,6.87,12.71-6.93,17.71-9.37,35.78-5.89,54.62,1.45,7.88,4.68,15,8.16,22,1.8,3.66,3.32,2.43,4.86-.21,14.86-25.48,30.4-50.61,41.25-78.18,2.94-7.47,4.54-15.48,6.54-23.3,1.09-4.27,3.59-6.93,7.76-8,10.23-2.55,20.55-4.2,31.08-1.95,7.46,1.61,9.41,5,7.15,12.2-1.45,4.58-3,9.13-4.35,13.74-6.35,21.77-4.29,42.66,6.19,62.84,7.18,13.82,6.84,13.47,21.33,8.42,37.95-13.24,75.86-14.95,112.58,3.82,23.79,12.16,39.57,31.24,44.33,58.29a50.49,50.49,0,0,1-29.94,55,19.56,19.56,0,0,1-2.46.9c-2.88.78-6.43,2.72-8.28-.73-2.11-3.93,2.17-5,4.49-6.63,24.92-17,28.06-42.8,8-65.71a74.4,74.4,0,0,0-34.28-22.16c-31.46-9.9-63.08-10.66-94.67-.17-3.57,1.19-5.57,2.24-3.94,6.83,11.91,33.6-.24,54.2-31.09,73.68a94.22,94.22,0,0,1-27.19,11.17C570.82,595,559.7,584.67,562,568.12c2.46-17.54,11.09-32,22.1-45.34a133.29,133.29,0,0,1,17.93-18.17c1.88-1.56,3.78-3.08,2.13-6-9.51-16.91-15-35.21-18.75-56.29-4.48,8.29-8,14.79-11.53,21.32A500.71,500.71,0,0,1,543.25,514c-2.19,3.13-2,5.59-.68,9,4.43,11.23,7.71,22.78,6.62,35.08-1.77,20-12.63,34-29.43,43.87a104.23,104.23,0,0,1-46.5,14.47,14.41,14.41,0,0,1-2,0c-6.79-.44-14.14-.38-17.67-7.54-3.35-6.78,0-12.83,4.24-18.09,12.76-15.81,25.83-31.36,38.52-47.22,11.25-14.06,11.25-14.27,3.3-30-7.37-14.56-11.17-30.21-14.65-46-2.78-.06-2.76,2.15-3.33,3.57C464.05,516,442.82,559.11,419,601c-4.46,7.84-9.9,15-17.11,20.52-12.44,9.54-24.72,5.81-30-8.89-3.43-9.46-3.41-19.28-3.2-29.13.07-3,0-6.05,0-10-3.06,3-3.81,6.4-5.15,9.43-5.66,12.8-11.26,25.62-18.58,37.59-5.3,8.67-11.82,15.47-23.05,16.19-12.46.8-20.84-4.71-26.79-15.12-13.41-23.46-17.5-48.55-13.73-75.19a306.84,306.84,0,0,1,7.26-34.18c-2.31-1.05-3.58,0-4.85.75-10.8,6.18-21.55,12.49-32.41,18.57-2.63,1.47-3,2.72-1.93,5.63,27.23,71.23-15.82,154.19-96.27,166.91-13.62,2.16-27.62,1.69-40.91-2.7-14.8-4.9-21.89-17.08-25.42-31.09-6.39-25.35.44-48.08,16.47-68,17.52-21.82,40.51-37.09,64.16-51.34,10.85-6.53,22.11-12.38,33.24-18.44,6.08-3.31,6.21-3.32.49-7.85-15.43-12.23-32-22.84-48.07-34.18-20.56-14.52-40.6-29.63-58-47.95-11.69-12.3-21.51-25.77-28.4-41.38C59.53,384.78,58.8,368.3,64,351.27c7.65-25.22,21.73-46.61,38.91-66.14,28.64-32.55,63.15-57.71,100.85-78.58C245.13,183.62,288,164,334.37,153.24c43-10,86.12-11.58,128.79,1.86,23.47,7.4,44.33,19.2,57.21,41.18,13.46,23,13.25,47.69,5.85,72.33-13.5,44.91-42.68,77.72-82.17,101.55C412.85,389,378.3,398,342.25,401.73c-20.12,2.09-40.18,2.19-59.89-2.85-18.08-4.62-33.48-13.72-44.62-29.13a29.63,29.63,0,0,1-5.25-12.6c-.34-2,.11-4,2.18-5a3.9,3.9,0,0,1,4.78,1c25.58,26.64,57.65,27.15,90.77,22,42.56-6.63,81-22.95,113.77-51.34,21-18.18,38-39.31,44.66-67.1,6.78-28.34-3.87-47.63-31.24-57.73C433.18,190,408,189.39,383,192.4c-80.19,9.64-148.5,46.42-211.3,94.92a166.67,166.67,0,0,0-40.15,44.61c-22.83,37-19.05,72.64,11.1,104,17.37,18,37.84,32.34,57.37,47.77,10.48,8.28,20.82,16.68,30,26.39,2.81,3,5,3.69,9,1.49q32.32-18.09,65-35.48c6-3.18,8.87-8.92,13.08-13.53,10.89-11.91,23.17-21.9,37.74-28.9A43,43,0,0,1,371.09,429c16.58-.92,26.43,7.56,27.63,24.29a137.73,137.73,0,0,1-.08,16.38c-.17,3.62.62,5,4.32,3.16,2.63-1.33,5.4-1.2,8.3-.51,9.72,2.32,13,7.6,10.35,17.32-6,22.14-12.11,44.23-16.85,66.67C403.06,564.34,402.05,572.46,403.51,582.41ZM228.45,569.92c.24-5.76-1-12.82-2.29-19.92-.9-4.83-2.69-5.07-6.56-2.75-12.72,7.66-25.33,15.48-37.26,24.32-12.79,9.47-25.85,18.76-35.55,31.67-9.47,12.6-16.5,26.24-15.68,42.69.53,10.57,6,16.21,16.25,16.73a41.2,41.2,0,0,0,11-.83C197.44,653.18,228.47,613.18,228.45,569.92Zm143.43-112c-8.52,1.61-16.07,7.31-21.81,14.82C327.71,502,315.78,534.75,319,572.1c.42,5,1.27,10,3.67,14.5,2.83,5.35,6,5.8,10,1.19,3.78-4.31,6.32-9.43,8.6-14.62a797,797,0,0,0,31.38-82.53,177,177,0,0,0,6.12-24.74C379.44,461.62,379,457.8,371.88,457.88Zm246.89,69.34c-.29-1.92-.59-4.53-1.1-7.09-.68-3.37-2.18-3.89-4.8-1.4a88.77,88.77,0,0,0-25.45,43.5c-.44,1.73-1,3.55.57,4.88s2.9-.09,4.24-.64C608.83,559.76,618.44,545.76,618.77,527.22ZM481.71,591.88c17.56-2.3,37.39-26.27,35.16-42.64C505.75,564.74,493.29,577.92,481.71,591.88Z" transform="translate(-1.53 -1.6)" style="fill:#fdfcfd"/><path d="M228.45,569.92c0,43.26-31,83.26-70,91.91a41.2,41.2,0,0,1-11,.83c-10.28-.52-15.72-6.16-16.25-16.73-.82-16.45,6.21-30.09,15.68-42.69,9.7-12.91,22.76-22.2,35.55-31.67,11.93-8.84,24.54-16.66,37.26-24.32,3.87-2.32,5.66-2.08,6.56,2.75C227.49,557.1,228.69,564.16,228.45,569.92Z" transform="translate(-1.53 -1.6)" style="fill:#d46fa4"/><path d="M371.88,457.88c7.13-.08,7.56,3.74,6.88,8a177,177,0,0,1-6.12,24.74,797,797,0,0,1-31.38,82.53c-2.28,5.19-4.82,10.31-8.6,14.62-4.05,4.61-7.19,4.16-10-1.19-2.4-4.54-3.25-9.52-3.67-14.5-3.19-37.35,8.74-70.11,31.1-99.4C355.81,465.19,363.36,459.49,371.88,457.88Z" transform="translate(-1.53 -1.6)" style="fill:#d46fa4"/><path d="M618.77,527.22c-.33,18.54-9.94,32.54-26.54,39.25-1.34.55-2.77,1.87-4.24.64s-1-3.15-.57-4.88a88.77,88.77,0,0,1,25.45-43.5c2.62-2.49,4.12-2,4.8,1.4C618.18,522.69,618.48,525.3,618.77,527.22Z" transform="translate(-1.53 -1.6)" style="fill:#d46fa4"/><path d="M481.71,591.88c11.58-14,24-27.14,35.16-42.64C519.1,565.61,499.27,589.58,481.71,591.88Z" transform="translate(-1.53 -1.6)" style="fill:#d46fa4"/></svg>